<?xml version="1.0" encoding="UTF-8" standalone="no"?>
<!-- Uploaded to: SVG Repo, www.svgrepo.com, Generator: SVG Repo Mixer Tools -->

<svg
   width="800px"
   height="800px"
   viewBox="0 0 24 24"
   fill="none"
   version="1.1"
   id="svg1"
   sodipodi:docname="darkmode.svg"
   inkscape:version="1.4 (e7c3feb100, 2024-10-09)"
   xmlns:inkscape="http://www.inkscape.org/namespaces/inkscape"
   xmlns:sodipodi="http://sodipodi.sourceforge.net/DTD/sodipodi-0.dtd"
   xmlns="http://www.w3.org/2000/svg"
   xmlns:svg="http://www.w3.org/2000/svg">
  <sodipodi:namedview
     id="namedview1"
     pagecolor="#ffffff"
     bordercolor="#000000"
     borderopacity="0.25"
     inkscape:showpageshadow="2"
     inkscape:pageopacity="0.0"
     inkscape:pagecheckerboard="0"
     inkscape:deskcolor="#d1d1d1"
     showgrid="false"
     inkscape:zoom="0.83203125"
     inkscape:cx="308.28169"
     inkscape:cy="447.09859"
     inkscape:window-width="1920"
     inkscape:window-height="1011"
     inkscape:window-x="0"
     inkscape:window-y="0"
     inkscape:window-maximized="1"
     inkscape:current-layer="svg1" />
  <g
     clip-path="url(#clip0_429_11017)"
     id="g1"
     transform="matrix(1.1707317,0,0,1.1707317,-2.0487805,-2.0487805)">
    <path
       d="m 20.9955,11.7115 1.2493,-0.0394 C 22.2326,11.2847 22.0414,10.9249 21.7272,10.698 21.413,10.4711 21.0113,10.4029 20.6397,10.5132 Z m -8.707,-8.70696 1.1983,0.35574 C 13.5971,2.98873 13.5289,2.58703 13.302,2.2728 13.0751,1.95857 12.7153,1.76736 12.3279,1.75516 Z m 8.3512,7.50866 C 20.1216,10.667 19.5716,10.75 19,10.75 v 2.5 c 0.815,0 1.6046,-0.1186 2.3512,-0.3402 z M 19,10.75 C 15.8244,10.75 13.25,8.17564 13.25,5 h -2.5 c 0,4.55635 3.6937,8.25 8.25,8.25 z M 13.25,5 c 0,-0.57159 0.083,-1.12159 0.2368,-1.63972 L 11.0902,2.64879 C 10.8686,3.39542 10.75,4.18496 10.75,5 Z M 12,4.25 c 0.0834,0 0.1665,0.00131 0.2492,0.00392 L 12.3279,1.75516 C 12.219,1.75173 12.1097,1.75 12,1.75 Z M 4.25,12 C 4.25,7.71979 7.71979,4.25 12,4.25 V 1.75 C 6.33908,1.75 1.75,6.33908 1.75,12 Z M 12,19.75 C 7.71979,19.75 4.25,16.2802 4.25,12 h -2.5 c 0,5.6609 4.58908,10.25 10.25,10.25 z M 19.75,12 c 0,4.2802 -3.4698,7.75 -7.75,7.75 v 2.5 c 5.6609,0 10.25,-4.5891 10.25,-10.25 z M 19.7461,11.7508 C 19.7487,11.8335 19.75,11.9166 19.75,12 h 2.5 c 0,-0.1097 -0.0017,-0.219 -0.0052,-0.3279 z"
       fill="#000000"
       stroke-width="2"
       id="path1" />
  </g>
  <defs
     id="defs1">
    <clipPath
       id="clip0_429_11017">
      <rect
         width="24"
         height="24"
         fill="none"
         id="rect1" />
    </clipPath>
  </defs>
</svg>
