<?xml version="1.0" encoding="UTF-8" standalone="no"?>
<!-- Uploaded to: SVG Repo, www.svgrepo.com, Generator: SVG Repo Mixer Tools -->

<svg
   width="800px"
   height="800px"
   viewBox="0 0 24 24"
   fill="none"
   version="1.1"
   id="svg1"
   sodipodi:docname="settings.svg"
   inkscape:version="1.4 (e7c3feb100, 2024-10-09)"
   xmlns:inkscape="http://www.inkscape.org/namespaces/inkscape"
   xmlns:sodipodi="http://sodipodi.sourceforge.net/DTD/sodipodi-0.dtd"
   xmlns="http://www.w3.org/2000/svg"
   xmlns:svg="http://www.w3.org/2000/svg">
  <defs
     id="defs1" />
  <sodipodi:namedview
     id="namedview1"
     pagecolor="#ffffff"
     bordercolor="#000000"
     borderopacity="0.25"
     inkscape:showpageshadow="2"
     inkscape:pageopacity="0.0"
     inkscape:pagecheckerboard="0"
     inkscape:deskcolor="#d1d1d1"
     inkscape:zoom="1"
     inkscape:cx="399.5"
     inkscape:cy="400"
     inkscape:window-width="1920"
     inkscape:window-height="1011"
     inkscape:window-x="0"
     inkscape:window-y="0"
     inkscape:window-maximized="1"
     inkscape:current-layer="svg1" />
  <g
     id="g1"
     transform="matrix(1.1974935,0,0,1.1974935,-2.3699289,-2.3699289)">
    <path
       d="m 10.5213,3.62368 c 0.7934,-0.87113 2.164,-0.87113 2.9574,0 l 0.7355,0.8076 c 0.4009,0.44026 0.9772,0.67897 1.572,0.65117 l 1.0912,-0.05099 c 1.1769,-0.05501 2.1462,0.91422 2.0911,2.09118 l -0.0509,1.09113 c -0.0278,0.59482 0.2109,1.1711 0.6511,1.57205 l 0.8076,0.73548 c 0.8712,0.7934 0.8712,2.164 0,2.9574 l -0.8076,0.7355 c -0.4402,0.4009 -0.6789,0.9772 -0.6511,1.572 l 0.0509,1.0912 c 0.0551,1.1769 -0.9142,2.1462 -2.0911,2.0911 l -1.0912,-0.0509 c -0.5948,-0.0278 -1.1711,0.2109 -1.572,0.6511 l -0.7355,0.8076 c -0.7934,0.8712 -2.164,0.8712 -2.9574,0 L 9.78582,19.5687 C 9.38487,19.1285 8.80859,18.8898 8.21376,18.9176 L 7.12264,18.9685 C 5.94568,19.0236 4.97645,18.0543 5.03146,16.8774 l 0.05099,-1.0912 c 0.0278,-0.5948 -0.21091,-1.1711 -0.65117,-1.572 l -0.8076,-0.7355 c -0.87113,-0.7934 -0.87113,-2.164 0,-2.9574 L 4.43128,9.78582 C 4.87154,9.38487 5.11025,8.80859 5.08245,8.21376 L 5.03146,7.12264 C 4.97645,5.94568 5.94568,4.97645 7.12264,5.03146 L 8.21376,5.08245 C 8.80859,5.11025 9.38487,4.87154 9.78583,4.43128 Z"
       stroke="#000000"
       stroke-width="2"
       id="path1" />
    <circle
       cx="12"
       cy="12"
       r="3"
       stroke="#000000"
       stroke-width="2"
       id="circle1" />
  </g>
</svg>
